<svg xmlns="http://www.w3.org/2000/svg" width="14.752" height="16.859" viewBox="0 0 14.752 16.859" fill="#aaa"><path class="a" d="M14.752,8.44a2.429,2.429,0,0,1-.5,1.5,8.137,8.137,0,0,1-.587.656l-.126.123a31.932,31.932,0,0,1-8.361,5.572,7.323,7.323,0,0,1-1.949.574H3.143A2.644,2.644,0,0,1,.817,15.468a11.51,11.51,0,0,1-.5-1.864A37.151,37.151,0,0,1,0,8.419,32.059,32.059,0,0,1,.356,3.073a13.448,13.448,0,0,1,.377-1.5A2.688,2.688,0,0,1,1.907.307,3,3,0,0,1,3.227,0,7.256,7.256,0,0,1,4.966.471a32.083,32.083,0,0,1,8.549,5.654c.293.287.608.637.691.717a2.549,2.549,0,0,1,.545,1.6"/></svg>